<?xml version="1.0" encoding="UTF-8"?><svg id="a" xmlns="http://www.w3.org/2000/svg" xmlns:xlink="http://www.w3.org/1999/xlink" viewBox="0 0 24 24"><defs><linearGradient id="b" x1="1.25" y1="12" x2="22.75" y2="12" gradientUnits="userSpaceOnUse"><stop offset="0" stop-color="#00004e"/><stop offset="1" stop-color="#000"/></linearGradient></defs><path d="M15.288,20.033C5.544,25.914.872,23.312,1.274,12.226,1.675,1.14,6.547-1.801,15.89,3.403c9.343,5.204,9.142,10.748-.602,16.629Z" style="fill:url(#b);"/><path d="M8.626,15.995l-1.124.075-.019-.121c-.065-.256-.225-.453-.48-.594l-1.827-.923-.083-1.083c.25-.037.429-.128.536-.271.157-.215.202-.454.137-.717-.019-.067-.056-.163-.112-.29-.056-.125-.184-.253-.384-.384l-.298-.155-.058-.857,5.279-.354.069,1.031-3.676.247c.138.216.235.439.291.667.046.182.065.371.059.571-.024.453-.177.822-.459,1.108l.913.461-.17-2.388.092-.006v-.011s1.184-.08,1.184-.08c.442-.029.87.12,1.281.448.313.272.511.584.597.934.019.08.032.166.038.255.025.374-.072.686-.292.938-.218.25-.516.388-.89.413l-.194.013-.075-1.113c.102-.007.182-.043.238-.108.076-.086.1-.194.071-.322-.027-.094-.081-.172-.159-.235-.082-.091-.197-.131-.347-.121l-.336.022.198,2.951Z" style="fill:#fff;"/><path d="M13.398,11.142l-2.583.173-.069-1.031,2.573-.173.08,1.031ZM13.557,14.742c-.029-.642-.095-1.114-.198-1.418-.102-.304-.225-.5-.367-.586-.144-.085-.292-.12-.449-.103l-.082.006c-.15.01-.27.063-.358.162-.089.098-.132.219-.129.362l.028.266c.007.108.052.198.136.268.083.07.176.102.278.095l.296-.021.072,1.071-.347.023c-.389.014-.734-.106-1.034-.361-.301-.252-.474-.565-.52-.938l-.034-.511c-.021-.41.094-.747.343-1.014.249-.266.583-.417,1.005-.452l.082-.005c.443-.023,1.348.352,1.713.604" style="fill:#fff;"/><path d="M15.72,15.5l-2.093.14c-.254-2.972-.418-4.81-.493-5.516l2.573-.173c.009-.062.008-.127-.003-.195-.027-.107-.091-.211-.19-.311-.099-.099-.225-.161-.376-.185l-1.637-.239-.094-1.091,1.709.245c.457.071.849.271,1.179.598.257.27.429.577.513.92.027.093.074.498.143,1.211l-2.593.174.299,3.385.796-.054c.156-.011.277-.067.362-.174.085-.104.13-.231.134-.383l-.107-.823c-.019-.074-.058-.146-.117-.212-.059-.069-.141-.116-.245-.144l-.094-.024-.095-1.112.282.073c.389.097.713.292.972.581.206.226.343.477.409.751.019.074.062.41.129,1.007.021.43-.093.787-.344,1.074-.25.287-.59.445-1.019.475Z" style="fill:#fff;"/></svg>